# xmcd
#
# Track frame offsets: 
#        150
#        23514
#        37899
#        64086
#        88608
#        110614
#        134412
#        165287
#        189584
#        210812
#        226003
#        250486
#        279118
#
# Disc length: 4030 seconds
#
# Revision: 1
# Processed by: cddbd v1.5.2PL0 Copyright (c) Steve Scherf et al.
# Submitted via: ExactAudioCopy v0.99pb5
#
DISCID=9a0fbc0d
DTITLE=Mountain Men - Against the Wind
DYEAR=2015
DGENRE=Blues
TTITLE0=Never give up
TTITLE1=Ride it all the way
TTITLE2=Moving forward
TTITLE3=Comme si
TTITLE4=Same old thing
TTITLE5=Spoonfed
TTITLE6=Georgia on my mind
TTITLE7=Headin' off again
TTITLE8=13
TTITLE9=La nouvelle tare
TTITLE10=Bob the bruiser
TTITLE11=Gonna waltz
TTITLE12=Le jour où il a plu dans ma chambre
EXTD=
EXTT0=
EXTT1=
EXTT2=
EXTT3=
EXTT4=
EXTT5=
EXTT6=
EXTT7=
EXTT8=
EXTT9=
EXTT10=
EXTT11=
EXTT12=
PLAYORDER=
